<?xml version="1.0" standalone="no"?><!DOCTYPE svg PUBLIC "-//W3C//DTD SVG 1.1//EN" "http://www.w3.org/Graphics/SVG/1.1/DTD/svg11.dtd"><svg t="1655377339842" class="icon" viewBox="0 0 1024 1024" version="1.1" xmlns="http://www.w3.org/2000/svg" p-id="22289" xmlns:xlink="http://www.w3.org/1999/xlink" width="200" height="200"><defs><style type="text/css">@font-face { font-family: feedback-iconfont; src: url("//at.alicdn.com/t/font_1031158_u69w8yhxdu.woff2?t=1630033759944") format("woff2"), url("//at.alicdn.com/t/font_1031158_u69w8yhxdu.woff?t=1630033759944") format("woff"), url("//at.alicdn.com/t/font_1031158_u69w8yhxdu.ttf?t=1630033759944") format("truetype"); }
</style></defs><path d="M512 1024C230.4 1024 0 793.6 0 512S230.4 0 512 0s512 230.4 512 512-230.4 512-512 512z" fill="#E9495B" p-id="22290"></path><path d="M573.192 1020.184C826.208 989.68 1024 772.888 1024 512c0-33.144-3.304-65.544-9.392-96.976L600.592 221.2l-37.16 27.464-17.04-47.808-31.488 39.672-31.912-39.672-14.312 41.704-40.224-14.24 0.688 39.328-46.368-10.848 15.68 44.08-52.496 3.384 25.224 40.016-42.952 13.568 35.456 33.224-35.456 28.48 42.272 18.984-27.264 37.304 19.088 56.96 47.04 145.12-13.296 82.4 177.12 259.864z" fill="#AB2D3D" p-id="22291"></path><path d="M595.184 543.384l-5.464 7.424-34.288-24.872-13.92 48.464-4.544 2.48-8.616 57.368-0.552 0.744 0.312 0.824-0.312 2.08 0.76-0.88 71.992 191.36 25.52-70.848 61.336 34.64z" fill="#5BC1ED" p-id="22292"></path><path d="M594.216 545.32l-5.456 7.424-34.296-24.872-11.504 41.688 80.688 183.504 62.792 41.04z" fill="#0F95BC" p-id="22293"></path><path d="M540.528 535.568l-31.256 228.04-45.72-59.4-65.216 47.968 31.768-231.744" fill="#5BC1ED" p-id="22294"></path><path d="M509.408 242.576l29.536-41.248 15.344 48.352 40.832-30.096-0.344 50.728 48.136-16.008-16.008 48.136 50.728-0.352-30.096 40.84 48.352 15.344-41.248 29.536 41.248 29.536-48.352 15.344 30.096 40.832-50.728-0.344 16.008 48.136-48.136-16.008 0.344 50.728-40.832-30.104-15.344 48.36-29.536-41.248-29.536 41.248-15.344-48.36-40.832 30.104 0.344-50.728-48.136 16.008 16.008-48.136-50.728 0.344 30.096-40.832-48.352-15.344 41.248-29.536-41.248-29.536 48.352-15.344-30.096-40.84 50.728 0.352-16.008-48.136 48.136 16.008-0.344-50.728 40.832 30.096 15.344-48.352z" fill="#F7BE15" p-id="22295"></path><path d="M479.872 580.408a6.112 6.112 0 0 1-5.824-4.272l-12.768-40.216-33.96 25.032a6.09 6.09 0 0 1-6.408 0.528 6.102 6.102 0 0 1-3.336-5.496l0.288-42.184-40.032 13.312a6.13 6.13 0 0 1-7.736-7.744l13.312-40.024-42.184 0.296h-0.04a6.118 6.118 0 0 1-4.928-9.752l25.032-33.96-40.208-12.76a6.124 6.124 0 0 1-4.192-4.872 6.132 6.132 0 0 1 2.48-5.936l34.296-24.56-34.296-24.56a6.124 6.124 0 0 1-2.48-5.936 6.102 6.102 0 0 1 4.192-4.872l40.208-12.76-25.032-33.952a6.14 6.14 0 0 1-0.528-6.408c1.056-2.064 2.92-3.336 5.496-3.352l42.184 0.296-13.312-40.024a6.114 6.114 0 0 1 1.48-6.256 6.114 6.114 0 0 1 6.256-1.48l40.032 13.312-0.288-42.192a6.14 6.14 0 0 1 3.336-5.496 6.124 6.124 0 0 1 6.408 0.528l33.96 25.032 12.76-40.208a6.122 6.122 0 0 1 4.872-4.2c2.312-0.36 4.584 0.6 5.928 2.488l24.56 34.296 24.56-34.296a6.112 6.112 0 0 1 10.8 1.712l12.76 40.208 33.96-25.032a6.12 6.12 0 0 1 6.408-0.528 6.102 6.102 0 0 1 3.336 5.496l-0.288 42.192 40.024-13.312a6.1 6.1 0 0 1 6.256 1.48c1.64 1.64 2.208 4.056 1.48 6.256l-13.312 40.024 42.176-0.296c2.096-0.12 4.44 1.28 5.496 3.352a6.108 6.108 0 0 1-0.528 6.408l-25.032 33.952 40.208 12.76a6.124 6.124 0 0 1 4.192 4.872 6.124 6.124 0 0 1-2.48 5.936L665.12 387.8l34.296 24.56c1.88 1.352 2.84 3.64 2.48 5.936a6.102 6.102 0 0 1-4.192 4.872l-40.208 12.76 25.032 33.96a6.14 6.14 0 0 1 0.528 6.408c-1.056 2.064-3.272 2.968-5.496 3.344l-42.176-0.296 13.312 40.024c0.728 2.2 0.16 4.624-1.48 6.256a6.12 6.12 0 0 1-6.256 1.488l-40.024-13.312 0.288 42.184a6.132 6.132 0 0 1-3.336 5.496 6.104 6.104 0 0 1-6.408-0.528l-33.96-25.032-12.76 40.208a6.104 6.104 0 1 1-10.8 1.712l-24.56-34.296-24.56 34.296a6.066 6.066 0 0 1-4.968 2.568m29.536-53.488c1.976 0 3.824 0.952 4.976 2.56l22.424 31.312 11.656-36.72a6.116 6.116 0 0 1 9.456-3.072l31.008 22.856-0.272-38.512a6.104 6.104 0 0 1 2.52-4.984c1.592-1.16 3.648-1.448 5.528-0.856l36.552 12.144-12.16-36.536a6.14 6.14 0 0 1 0.856-5.536c1.16-1.592 3.272-2.848 4.984-2.52l38.512 0.272-22.848-30.992a6.124 6.124 0 0 1 3.072-9.472l36.704-11.648-31.312-22.424a6.108 6.108 0 0 1-2.552-4.976c0-1.976 0.944-3.824 2.552-4.976l31.312-22.432-36.704-11.648a6.12 6.12 0 0 1-3.072-9.472l22.848-30.992-38.512 0.272h-0.04a6.12 6.12 0 0 1-5.808-8.048l12.16-36.544-36.552 12.152c-1.88 0.6-3.936 0.296-5.528-0.856a6.12 6.12 0 0 1-2.52-4.992l0.272-38.504-31.008 22.848a6.12 6.12 0 0 1-5.52 0.896 6.058 6.058 0 0 1-3.936-3.968l-11.656-36.72-22.424 31.312c-1.144 1.616-3 2.56-4.976 2.56s-3.832-0.952-4.976-2.56L482 214.832l-11.656 36.72c-0.6 1.88-2.064 3.36-3.936 3.968-1.88 0.616-3.928 0.28-5.52-0.896l-31.008-22.848 0.272 38.504a6.13 6.13 0 0 1-2.52 4.992c-1.592 1.16-3.64 1.464-5.528 0.856l-36.552-12.152 12.16 36.544a6.12 6.12 0 0 1-5.808 8.048h-0.04l-38.52-0.272 22.856 30.992a6.124 6.124 0 0 1-3.072 9.472l-36.712 11.648 31.312 22.432c1.608 1.144 2.552 3 2.552 4.976s-0.952 3.832-2.552 4.976l-31.312 22.424 36.712 11.648a6.12 6.12 0 0 1 3.072 9.472l-22.856 30.992 38.52-0.272h0.04a6.12 6.12 0 0 1 5.808 8.056l-12.16 36.536 36.552-12.144a6.146 6.146 0 0 1 5.528 0.856c1.6 1.16 2.536 3.016 2.52 4.984l-0.272 38.512 31.008-22.856a6.084 6.084 0 0 1 5.52-0.896 6.092 6.092 0 0 1 3.936 3.968l11.656 36.72 22.424-31.312a6.13 6.13 0 0 1 4.984-2.56" fill="#474341" p-id="22296"></path><path d="M629.192 387.808c0 66.152-53.632 119.776-119.784 119.776s-119.776-53.624-119.776-119.776 53.632-119.784 119.776-119.784c66.152 0 119.784 53.632 119.784 119.784" fill="#DD9D00" p-id="22297"></path><path d="M509.408 513.712c-69.416 0-125.896-56.488-125.896-125.904 0-69.424 56.48-125.904 125.896-125.904 69.424 0 125.904 56.48 125.904 125.904-0.008 69.416-56.48 125.904-125.904 125.904m0-239.568c-62.672 0-113.664 50.984-113.664 113.664 0 62.672 50.992 113.656 113.664 113.656s113.664-50.984 113.664-113.656-50.992-113.664-113.664-113.664M508.24 775.96c-1.896 0-3.72-0.888-4.888-2.448l-42.072-55.904-60.232 45.264a6.116 6.116 0 0 1-9.736-5.728l28.056-204.712c0.464-3.352 3.52-5.744 6.896-5.224a6.118 6.118 0 0 1 5.232 6.896l-26.064 190.168 53.4-40.12a6.132 6.132 0 0 1 8.568 1.216l36.816 48.92 25.584-186.712c0.456-3.352 3.56-5.736 6.896-5.232a6.116 6.116 0 0 1 5.232 6.904L514.32 770.68a6.092 6.092 0 0 1-4.52 5.08c-0.528 0.128-1.048 0.2-1.56 0.2" fill="#474341" p-id="22298"></path><path d="M599.904 836.432a6.09 6.09 0 0 1-5.72-3.968l-72.752-193.384a6.112 6.112 0 0 1 3.576-7.88 6.12 6.12 0 0 1 7.88 3.56l66.896 177.84 19.896-55.216a6.09 6.09 0 0 1 3.624-3.656 6.116 6.116 0 0 1 5.136 0.4l46.776 26.416L588.8 547.448a6.106 6.106 0 0 1 3.608-7.856 6.118 6.118 0 0 1 7.864 3.608l92.224 248.776a6.118 6.118 0 0 1-1.768 6.784 6.104 6.104 0 0 1-6.984 0.672l-55.024-31.08-23.08 64.032a6.11 6.11 0 0 1-5.712 4.048h-0.024z" fill="#474341" p-id="22299"></path><path d="M434.28 693.936a6.124 6.124 0 0 1-6.08-6.904l2.544-19.784a6.106 6.106 0 0 1 6.848-5.296 6.112 6.112 0 0 1 5.288 6.848l-2.552 19.808a6.094 6.094 0 0 1-6.048 5.328M440.608 644.704a6.124 6.124 0 0 1-6.08-6.904l8.264-64.288c0.44-3.36 3.504-5.688 6.848-5.296a6.12 6.12 0 0 1 5.288 6.848l-8.272 64.304a6.1 6.1 0 0 1-6.048 5.336" fill="#0F95BC" p-id="22300"></path><path d="M598.624 367.12c4.328 17.376 4.68 34.472-0.408 51.72-1.576 5.344 6.76 7.624 8.328 2.296 5.512-18.672 5.088-37.512 0.408-56.312-1.344-5.392-9.68-3.104-8.328 2.296M551.84 299.288c18.984 14.96 33.992 33.816 43.032 56.336 2.048 5.096 10.4 2.864 8.328-2.296-9.616-23.952-24.984-44.168-45.248-60.144-4.328-3.408-10.48 2.664-6.112 6.104" fill="#B47B18" p-id="22301"></path></svg>