<?xml version="1.0" standalone="no"?><!DOCTYPE svg PUBLIC "-//W3C//DTD SVG 1.1//EN" "http://www.w3.org/Graphics/SVG/1.1/DTD/svg11.dtd"><svg t="1655377344930" class="icon" viewBox="0 0 1024 1024" version="1.1" xmlns="http://www.w3.org/2000/svg" p-id="22453" xmlns:xlink="http://www.w3.org/1999/xlink" width="200" height="200"><defs><style type="text/css">@font-face { font-family: feedback-iconfont; src: url("//at.alicdn.com/t/font_1031158_u69w8yhxdu.woff2?t=1630033759944") format("woff2"), url("//at.alicdn.com/t/font_1031158_u69w8yhxdu.woff?t=1630033759944") format("woff"), url("//at.alicdn.com/t/font_1031158_u69w8yhxdu.ttf?t=1630033759944") format("truetype"); }
</style></defs><path d="M512 1024C230.4 1024 0 793.6 0 512S230.4 0 512 0s512 230.4 512 512-230.4 512-512 512z" fill="#F7BE15" p-id="22454"></path><path d="M1024 512c0-32.64-3.224-64.544-9.136-95.528l-294.448-174.496h-133.728l-37.768 44.48-101.056-44.48h-135.76l136.784 193.088s-62.264 34.696-83.704 59.648-43.896 67.008-39.808 130.048c4.08 63.04 26.544 87.304 26.544 87.304l139.544 311.408c6.816 0.28 13.648 0.528 20.536 0.528 281.6 0 512-230.4 512-512z" fill="#DB8E1F" p-id="22455"></path><path d="M577.824 425.064l131.88-183.864h-134.472l-65.824 93.608" fill="#0D946D" p-id="22456"></path><path d="M577.816 431.528a6.472 6.472 0 0 1-3.768-1.208 6.468 6.468 0 0 1-1.48-9.032l124.536-173.624H578.6l-63.896 90.864a6.46 6.46 0 0 1-9.016 1.576 6.474 6.474 0 0 1-1.568-9.008l65.832-93.616a6.466 6.466 0 0 1 5.296-2.752h134.464c2.424 0 4.648 1.36 5.752 3.52a6.462 6.462 0 0 1-0.496 6.72l-131.896 183.864a6.438 6.438 0 0 1-5.256 2.696" fill="#474341" p-id="22457"></path><path d="M441 425.064L309.12 241.2h134.464l129.296 183.864" fill="#3AB394" p-id="22458"></path><path d="M572.88 431.528a6.46 6.46 0 0 1-5.296-2.752l-127.36-181.104h-118.512l124.536 173.624a6.47 6.47 0 0 1-1.488 9.032 6.446 6.446 0 0 1-9.024-1.488l-131.872-183.872a6.464 6.464 0 0 1 5.248-10.24h134.464c2.104 0 4.08 1.024 5.296 2.752l129.296 183.864a6.468 6.468 0 0 1-5.288 10.184" fill="#474341" p-id="22459"></path><path d="M694.728 605.12c0 102.352-82.968 185.32-185.312 185.32-102.352 0-185.32-82.968-185.32-185.32s82.968-185.312 185.32-185.312c102.336 0 185.312 82.968 185.312 185.312" fill="#F7BE15" p-id="22460"></path><path d="M509.408 796.912c-105.752 0-191.784-86.04-191.784-191.792 0-105.744 86.032-191.784 191.784-191.784s191.784 86.04 191.784 191.784c0 105.76-86.032 191.792-191.784 191.792m0-370.632c-98.616 0-178.848 80.224-178.848 178.84 0 98.624 80.232 178.848 178.848 178.848 98.624 0 178.856-80.224 178.856-178.848 0-98.616-80.24-178.84-178.856-178.84" fill="#474341" p-id="22461"></path><path d="M455.496 400.36a6.46 6.46 0 0 1-5.232-2.664l-20.928-28.768a6.472 6.472 0 0 1 1.424-9.04 6.47 6.47 0 0 1 9.032 1.424l20.928 28.768a6.48 6.48 0 0 1-1.424 9.04 6.42 6.42 0 0 1-3.8 1.24M416.4 346.608a6.46 6.46 0 0 1-5.232-2.664l-57.232-78.688a6.48 6.48 0 0 1 1.424-9.04c2.88-2.112 6.944-1.448 9.04 1.432l57.224 78.68a6.48 6.48 0 0 1-1.424 9.04 6.4 6.4 0 0 1-3.8 1.24" fill="#0D946D" p-id="22462"></path><path d="M375.2 642.456c0-98.664 79.984-178.648 178.648-178.648 33.208 0 64.28 9.096 90.92 24.88-32.76-38.384-81.464-62.744-135.888-62.744-98.656 0-178.64 79.984-178.64 178.648 0 65.456 35.216 122.656 87.72 153.768-26.648-31.208-42.76-71.664-42.76-115.904" fill="#DD9D00" p-id="22463"></path><path d="M509.408 464.648l39.096 79.216 87.416 12.704-63.256 61.656 14.936 87.064-78.192-41.104-78.184 41.104 14.928-87.064-63.256-61.656 87.416-12.704z" fill="#DD9D00" p-id="22464"></path><path d="M509.408 464.648l39.088 79.216 87.416 12.704-63.256 61.656 14.928 87.064-78.192-41.104-78.192 41.104 14.928-87.064-63.256-61.656 87.416-12.704 39.12-79.216m0-12.936a12.932 12.932 0 0 0-11.6 7.216L461.72 532.04l-80.688 11.728a12.924 12.924 0 0 0-10.44 8.8 12.926 12.926 0 0 0 3.272 13.264l58.384 56.912-13.784 80.36a12.93 12.93 0 0 0 5.152 12.656 12.896 12.896 0 0 0 7.608 2.472 12.826 12.826 0 0 0 6.016-1.488l72.168-37.944 72.168 37.944a12.932 12.932 0 0 0 13.624-0.984 12.944 12.944 0 0 0 5.152-12.656l-13.784-80.36 58.384-56.912c3.52-3.44 4.792-8.584 3.272-13.264s-5.568-8.096-10.44-8.8l-80.688-11.728-36.088-73.112a12.932 12.932 0 0 0-11.6-7.216" fill="#474341" p-id="22465"></path><path d="M600.272 741.488c-15.424 10.784-32.312 17.896-51.216 19.304-5.816 0.432-5.864 9.56 0 9.128 20.496-1.528 39.032-8.808 55.824-20.544 4.776-3.352 0.224-11.264-4.608-7.888M649.048 670.656c-7.696 24.488-20.88 46.056-39.752 63.512-4.328 3.992 2.144 10.44 6.448 6.448 20.008-18.496 33.952-41.6 42.104-67.536 1.768-5.616-7.04-8.016-8.8-2.424" fill="#B47B18" p-id="22466"></path></svg>