<svg xmlns="http://www.w3.org/2000/svg" fill="none" viewBox="0 0 48 48"><path fill-opacity=".01" fill="#fff" d="M0 0h48v48H0z"/><path stroke-linejoin="round" stroke-width="4" stroke="#9b9b9b" fill="#9b9b9b" d="M24 37c7.18 0 13-5.82 13-13s-5.82-13-13-13-13 5.82-13 13 5.82 13 13 13Z" data-follow-fill="#9b9b9b" data-follow-stroke="#9b9b9b"/><path fill="#9b9b9b" d="M24 6a2.5 2.5 0 1 0 0-5 2.5 2.5 0 0 0 0 5ZM38.5 12a2.5 2.5 0 1 0 0-5 2.5 2.5 0 0 0 0 5ZM44.5 26.5a2.5 2.5 0 1 0 0-5 2.5 2.5 0 0 0 0 5ZM38.5 41a2.5 2.5 0 1 0 0-5 2.5 2.5 0 0 0 0 5ZM24 47a2.5 2.5 0 1 0 0-5 2.5 2.5 0 0 0 0 5ZM9.5 41a2.5 2.5 0 1 0 0-5 2.5 2.5 0 0 0 0 5ZM3.5 26.5a2.5 2.5 0 1 0 0-5 2.5 2.5 0 0 0 0 5ZM9.5 12a2.5 2.5 0 1 0 0-5 2.5 2.5 0 0 0 0 5Z" data-follow-fill="#9b9b9b"/></svg>